<?xml version="1.0" encoding="UTF-8"?>
<svg version="1.1" xmlns="http://www.w3.org/2000/svg" width="239" height="176">
<path d="M0 0 C8.91 0 17.82 0 27 0 C27 32.01 27 64.02 27 97 C51.75 97 76.5 97 102 97 C102.33 118.78 102.66 140.56 103 163 C113.65023618 149.38741342 113.65023618 149.38741342 124 135.5625 C125.16793211 133.96872315 126.33590197 132.37497396 127.50390625 130.78125 C128.08156738 129.99105469 128.65922852 129.20085937 129.25439453 128.38671875 C132.14116363 124.43971809 135.0386119 120.50060445 137.9375 116.5625 C138.50952148 115.78430908 139.08154297 115.00611816 139.67089844 114.2043457 C143.34771065 109.21167043 147.06937462 104.25523259 150.81298828 99.3125 C170.98641999 74.34600723 170.98641999 74.34600723 177 44 C175.18481682 37.01549082 172.39314724 31.88945254 166.25390625 27.8515625 C158.52779633 23.46773353 150.43585329 23.37053009 141.8828125 25.125 C137.49428572 26.45701897 133.56042734 28.49182265 129.53125 30.66015625 C127 32 127 32 124 33 C124 23.76 124 14.52 124 5 C138.64493558 -0.63266753 138.64493558 -0.63266753 144.8828125 -0.62890625 C145.54860321 -0.63131821 146.21439392 -0.63373016 146.90036011 -0.63621521 C148.28308171 -0.63525162 149.66584937 -0.62222324 151.04833984 -0.59692383 C153.13124785 -0.56239643 155.20993568 -0.57639315 157.29296875 -0.59570312 C171.18361481 -0.58191047 181.8308422 3.34041929 192.00390625 12.87890625 C200.75379996 22.23354424 204.74719368 34.28009799 205.375 47 C204.41179837 64.52286038 196.17302926 80.08711875 186 94 C185.50757813 94.67724121 185.01515625 95.35448242 184.5078125 96.05224609 C180.97969681 100.89390965 177.41603046 105.70856193 173.84228516 110.51660156 C171.48040306 113.70041612 169.13374187 116.89527097 166.78710938 120.09033203 C159.52624187 129.97226581 152.18066843 139.78923387 144.81054688 149.58984375 C143.01140967 151.98481172 141.21597581 154.38250747 139.421875 156.78125 C138.8645166 157.52608643 138.3071582 158.27092285 137.73291016 159.03833008 C136.68515004 160.43879049 135.6379229 161.83964987 134.59130859 163.2409668 C131.11186653 167.88813347 131.11186653 167.88813347 130 169 C128.28134591 169.0935919 126.55884256 169.11744611 124.83764648 169.11352539 C123.73658066 169.11344986 122.63551483 169.11337433 121.50108337 169.11329651 C120.3031868 169.10813522 119.10529022 169.10297394 117.87109375 169.09765625 C116.65172623 169.0962413 115.4323587 169.09482635 114.17604065 169.09336853 C110.2631693 169.08774967 106.35035419 169.07519396 102.4375 169.0625 C99.79231853 169.05748743 97.14713617 169.0529241 94.50195312 169.04882812 C88.00126274 169.03862296 81.50069467 169.01905121 75 169 C75 154.15 75 139.3 75 124 C50.25 124 25.5 124 0 124 C0 83.08 0 42.16 0 0 Z " fill="#000000" transform="translate(11,1)"/>
<path d="M0 0 C0.66579071 -0.00241196 1.33158142 -0.00482391 2.01754761 -0.00730896 C3.40026921 -0.00634537 4.78303687 0.00668301 6.16552734 0.03198242 C8.24843535 0.06650982 10.32712318 0.0525131 12.41015625 0.03320312 C26.30080231 0.04699578 36.9480297 3.96932554 47.12109375 13.5078125 C55.87098746 22.86245049 59.86438118 34.90900424 60.4921875 47.62890625 C59.52898587 65.15176663 51.29021676 80.716025 41.1171875 94.62890625 C40.62476563 95.30614746 40.13234375 95.98338867 39.625 96.68115234 C36.09688431 101.5228159 32.53321796 106.33746818 28.95947266 111.14550781 C26.59759056 114.32932237 24.25092937 117.52417722 21.90429688 120.71923828 C14.64342937 130.60117206 7.29785593 140.41814012 -0.07226562 150.21875 C-1.87140283 152.61371797 -3.66683669 155.01141372 -5.4609375 157.41015625 C-6.2969751 158.52741089 -6.2969751 158.52741089 -7.14990234 159.66723633 C-8.19766246 161.06769674 -9.2448896 162.46855612 -10.29150391 163.86987305 C-13.77094597 168.51703972 -13.77094597 168.51703972 -14.8828125 169.62890625 C-17.02840077 169.7166623 -19.17685671 169.73585844 -21.32421875 169.7265625 C-22.62939453 169.72333984 -23.93457031 169.72011719 -25.27929688 169.71679688 C-26.6679694 169.70844026 -28.05664127 169.6999753 -29.4453125 169.69140625 C-30.83788906 169.68639291 -32.23046731 169.68182972 -33.62304688 169.67773438 C-37.0430112 169.66590059 -40.46289094 169.64941505 -43.8828125 169.62890625 C-43.27097081 166.41918652 -42.20356776 164.38991326 -40.25 161.78515625 C-39.69892578 161.04394531 -39.14785156 160.30273438 -38.58007812 159.5390625 C-37.97873047 158.74371094 -37.37738281 157.94835937 -36.7578125 157.12890625 C-35.82098633 155.87400391 -35.82098633 155.87400391 -34.86523438 154.59375 C-32.87737817 151.93402615 -30.8807052 149.28109666 -28.8828125 146.62890625 C-27.62458729 144.95213253 -26.3667668 143.27505503 -25.109375 141.59765625 C-23.23806447 139.10192152 -21.36611031 136.60668841 -19.49169922 134.11328125 C-14.67303275 127.70001086 -9.90631899 121.24999876 -5.16113281 114.78222656 C-1.50429727 109.80538271 2.1987027 104.86635957 5.92797852 99.94360352 C26.10348636 74.9765367 26.10348636 74.9765367 32.1171875 44.62890625 C30.30200432 37.64439707 27.51033474 32.51835879 21.37109375 28.48046875 C13.64498383 24.09663978 5.55304079 23.99943634 -3 25.75390625 C-7.38852678 27.08592522 -11.32238516 29.1207289 -15.3515625 31.2890625 C-17.8828125 32.62890625 -17.8828125 32.62890625 -20.8828125 33.62890625 C-20.8828125 24.38890625 -20.8828125 15.14890625 -20.8828125 5.62890625 C-6.23787692 -0.00376128 -6.23787692 -0.00376128 0 0 Z " fill="#000000" transform="translate(155.8828125,0.37109375)"/>
<path d="M0 0 C15.51 0 31.02 0 47 0 C47 8.91 47 17.82 47 27 C31.49 27 15.98 27 0 27 C0 18.09 0 9.18 0 0 Z " fill="#000000" transform="translate(171,143)"/>
<path d="M0 0 C0.99 0.495 0.99 0.495 2 1 C1.67 8.92 1.34 16.84 1 25 C1.66 25 2.32 25 3 25 C2.67 25.99 2.34 26.98 2 28 C1.34 28 0.68 28 0 28 C0 18.76 0 9.52 0 0 Z " fill="#000000" transform="translate(135,6)"/>
</svg>